<svg width="871" height="320" viewBox="0 0 871 320" fill="none" xmlns="http://www.w3.org/2000/svg">
<path d="M795.764 255.961L754.371 268.635L783.167 269.315L795.805 282.622L861.364 288.575L852.075 256.89L800.708 268.099L795.764 255.961Z" stroke="white" stroke-width="1.5"/>
<path d="M62.9023 260.652L102.572 259.2L77.8273 268.438L70.874 283.763L15.8605 308.61L14.3922 278.367L62.2644 272.652L62.9023 260.652Z" stroke="white" stroke-width="1.5"/>
<path d="M107.272 115.687L153.182 135.616L130.629 113.83L133.584 93.4186L86.5891 40.1465L62.7704 73.4208L115.279 101.92L107.272 115.687Z" stroke="white" stroke-width="1.5"/>
<g clip-path="url(#clip0_1252_133)">
<path d="M493.971 60.2334C493.352 59.9853 492.462 59.9079 491.911 59.7432C491.053 59.455 490.207 59.0944 489.166 58.918C487.725 58.6758 486.259 58.5784 485.002 58.2207C484.291 58.0305 483.701 57.6388 483.15 57.474C482.213 57.1712 481.365 57.3218 480.728 56.7047C480.741 56.6323 480.888 56.7303 480.912 56.5892C480.227 56.2542 480.761 55.0349 480.398 54.7558C480.596 54.0605 480.681 53.565 480.638 52.8332C480.619 52.4679 480.277 52.0466 480.326 51.7608C480.35 51.6198 480.614 51.519 480.546 51.4357C480.57 51.2946 480.423 51.1967 480.367 51.041C480.302 50.4466 480.447 49.6004 480.449 49.0892C480.48 47.9306 480.199 46.6475 480.47 45.5291C480.152 44.9668 480.226 44.0325 480.495 43.4253C480.256 42.8776 480.232 41.5633 480.556 41.1081C480.286 40.7712 480.454 39.2717 480.48 38.6195C480.542 37.7576 480.035 34.3992 480 32.6461C481.342 26.6153 479.836 20.3978 480.191 14.8537C480.135 14.698 480.171 14.4883 479.916 14.5157C480.217 14.2015 479.943 13.8635 480.064 13.1583C480.076 13.086 479.903 13.1328 479.756 13.0349C480.29 11.8156 479.671 10.1123 479.551 8.8547C480.011 8.5697 480.642 8.74535 481.145 8.68469C481.398 8.6525 481.593 8.46836 481.753 8.49391C482.588 8.4157 483.447 8.7039 484.298 8.55436C486.316 8.30905 489.346 8.89131 491.989 9.33176C491.829 11.269 491.944 13.0329 491.918 15.1404L492.168 15.6194C491.836 17.5997 492.741 19.5723 492.097 21.4281C492.337 21.4683 492.104 21.8658 492.427 21.9217C492.298 22.1928 492.366 22.2761 492.262 22.4025C492.556 23.1059 492.115 23.7599 492.444 24.2535C492.253 25.894 492.54 27.6149 492.503 29.2836C492.466 31.4598 492.109 33.5811 492.247 35.7152C492.472 38.298 493.726 41.1296 493.959 43.6426C495.268 41.2406 495.95 38.6639 497.031 36.153C497.123 36.0953 497.202 36.1099 497.374 36.0668C497.607 35.1618 498.472 34.4324 498.675 33.2307C499.343 32.6892 499.512 31.186 500.215 30.9423C500.239 30.8012 500.079 30.7757 500.195 30.5769C500.551 30.4183 500.771 30.0931 500.887 29.8944C501.654 28.2775 502.166 26.6882 502.981 24.7893C503.129 24.8872 503.234 24.7571 503.393 24.7863C503.13 24.3797 503.65 24.2477 503.595 23.5846C504.166 23.6073 504.253 22.6043 504.657 22.1637C507.503 22.8577 510.734 22.7457 513.413 23.4839C513.547 24.1616 513.877 24.6516 513.731 25.5015C514.697 28.5749 515.169 31.6356 515.768 34.9363C515.743 35.0774 515.995 35.0489 515.983 35.1175C515.748 39.4443 518.129 43.9159 517.975 47.7461C520.56 44.6118 522.72 40.1012 524.188 36.2731C525.306 35.0041 525.964 32.5685 526.994 30.8508C527.007 30.7784 526.847 30.7529 526.766 30.7419C529.075 27.7808 530.523 23.5874 532.9 20.7096C533.296 19.3189 534.166 17.5757 534.84 16.5241C536.245 16.976 537.256 16.8557 538.876 17.4888C539.129 17.4566 539.14 17.3879 539.324 17.2725C541.71 18.2552 544.309 18.9788 546.733 19.2406C547.088 19.5895 547.278 19.9155 547.469 20.2377C547.377 20.2955 547.217 20.2699 547.113 20.3963C547.212 20.7763 546.936 20.9495 546.959 21.316C545.393 22.8013 544.143 24.3367 543.183 26.1424C543.091 26.2001 542.931 26.1746 542.827 26.301C542.084 27.7768 541.605 29.1517 540.34 30.3228C540.327 30.3951 540.487 30.4207 540.463 30.5617C539.826 31.3999 539.475 32.5074 538.579 32.9401C538.647 33.0234 538.806 33.0526 538.702 33.1791C537.04 35.2285 535.73 37.6306 534.019 39.9621C533.995 40.1032 534.074 40.1178 534.155 40.1287C533.799 40.2873 533.622 40.8405 533.725 41.2216C533.621 41.348 533.461 41.3224 533.356 41.4525C533.547 41.7748 533.171 42.0755 533.054 42.2742C532.845 43.0382 532.895 43.704 532.562 44.229C532.433 44.5001 532.169 44.601 532.053 44.7998C531.728 45.2551 531.751 45.6215 531.322 46.2069C531.102 46.5321 530.678 46.6074 530.652 47.2596C528.069 49.8827 528.217 53.9109 525.715 56.545C525.095 58.2598 524.356 59.7366 523.37 61.1711C523.087 62.3619 522.638 63.0857 522.129 63.6565C521.031 63.3281 520.148 63.6884 518.799 63.3885C518.248 63.2238 517.725 62.9191 517.084 62.8084C514.109 62.3818 511.447 63.0276 508.246 61.9847C508.006 61.9445 507.879 61.7045 507.572 61.581C506.726 61.2204 505.694 61.4865 505.07 60.797C505.083 60.7247 505.242 60.7539 505.322 60.7648C505.346 60.6238 505.107 60.5836 505.048 60.4269C504.997 53.8718 505.995 47.9272 504.944 41.9311C504.224 43.777 502.929 45.5956 502.297 47.3827L502.058 47.3425C501.08 49.727 500.375 50.9893 499.674 53.2006C497.899 54.9425 497.051 58.5111 495.699 60.6851C495.055 61.0856 494.725 60.5957 493.958 60.2497L493.971 60.2334Z" fill="white"/>
<path d="M595.352 55.9303C595.095 56.5249 595.151 57.0164 594.877 57.4462C593.472 59.8891 592.079 62.727 590.834 65.0032C590.76 64.9701 590.732 65.0383 590.684 64.9407C590.757 65.5969 589.763 66.2616 589.983 66.984C589.956 67.0522 589.808 66.986 589.733 66.9528C588.893 68.7008 588.384 69.8872 587.418 71.1116C587.263 72.9183 585.64 74.0157 584.643 75.3071C584.4 75.6698 584.451 76.164 583.893 76.2332C583.715 76.8583 583.123 76.9936 583.103 77.4556C582.879 77.36 582.474 77.8883 582.407 78.2491C581.602 78.6837 580.825 79.0501 580.185 79.7156C578.94 80.3528 577.398 80.8575 575.834 81.2001C575.61 81.1045 575.527 81.3006 575.229 81.1718C572.508 81.9529 568.911 81.265 565.393 80.6077C563.432 80.2335 562.064 79.7203 560.139 79.0487C559.512 78.8583 558.899 78.436 558.303 78.1784C557.602 77.9549 556.904 77.7324 556.186 77.3441C555.068 76.8621 554.267 76.0505 553.484 75.3999C553.212 75.2066 552.766 75.0116 552.498 74.8194C551.623 73.9747 551.031 72.4709 550.244 71.4274C550.122 71.2967 549.824 71.1679 549.657 70.9407C549.676 70.4823 549.463 70.1537 549.104 69.7637C549.069 69.438 548.825 69.1765 548.817 68.7826C547.833 67.579 547.905 65.9683 547.022 64.7297C547.102 63.5129 545.969 62.2431 546.105 60.8984C546.012 60.7043 545.89 60.5735 545.847 60.4733C545.882 59.16 545.812 57.8806 545.61 56.6998C546.024 53.6754 547.936 50.6691 548.872 47.8691C548.929 47.7375 548.912 47.5728 548.996 47.3767C549.788 45.5312 550.817 43.5532 551.562 41.6064C552.071 40.4199 552.76 39.2326 552.913 38.0489C554.355 35.3087 555.611 32.1801 556.927 28.9163C557.378 27.8614 558.226 26.5074 558.427 25.4214C558.521 24.9924 558.124 24.2756 558.59 24.0085C559.582 23.9669 561.808 25.1602 562.852 25.609C563.217 25.377 564.02 25.5655 564.383 25.9566C564.457 25.9898 564.467 25.7569 564.616 25.8231C567.364 27.2408 569.337 29.0296 572.142 30.3157C572.159 30.4804 572.177 30.6414 572.404 30.7418C572.428 31.3004 571.728 31.701 571.34 32.3941C570.84 33.3513 570.555 34.6335 570.072 35.7555C569.863 36.4476 569.208 36.9448 568.982 37.4722C568.814 37.8681 569.071 38.2932 568.54 38.2979C568.744 38.8556 568.031 39.4844 567.805 40.0118C567.191 41.2323 566.99 42.3184 566.332 43.4386C566.143 43.6687 565.94 43.7388 565.751 43.9689C565.666 44.1686 565.89 44.2643 565.86 44.3277L565.363 44.6619C564.829 45.2897 564.712 46.1797 564.324 46.8691C564.024 47.3634 563.205 48.0298 563.515 48.5499C562.886 48.9825 562.827 49.7372 562.283 50.598C561.01 52.9424 559.767 55.8428 560.044 58.0727C559.771 58.5026 559.552 59.4239 559.889 59.8795C559.848 60.1758 559.563 59.8189 559.524 60.1115C559.483 60.4078 559.624 60.6995 559.715 60.8974C559.228 63.2656 559.173 65.041 559.715 67.0703C559.954 67.9537 561.712 70.0371 562.762 70.8836C563.498 71.4329 564.384 71.4254 565.607 71.8734C566.831 72.3214 568.163 73.1282 569.364 73.4142C569.588 73.5098 570.092 73.5733 570.465 73.7315C570.689 73.8271 570.773 73.6311 570.905 73.5289C571.857 73.7836 572.249 73.4835 572.878 73.0508C573.842 72.4496 574.734 71.8199 575.427 71.0254C575.558 70.927 575.626 70.5625 575.784 70.3995C576.432 69.5085 576.949 68.7122 577.786 67.5911C578.567 66.5979 579.019 65.543 579.89 64.7476C580.335 63.2988 581.23 62.0424 581.871 60.7575C582.613 59.4375 583.061 57.9897 583.569 56.8032L584.251 55.222C584.648 54.2997 584.613 53.3462 584.984 52.4921C585.567 51.3387 586.33 50.1808 586.832 48.6004C587.357 46.559 588.549 44.8072 589.259 42.5347C590.645 41.5698 590.203 40.1286 590.844 38.8436C590.884 38.5473 590.507 38.3881 590.547 38.0918C590.912 37.8598 590.977 38.1221 591.221 37.7556C591.343 37.8864 592.816 38.3656 592.255 38.4337C592.479 38.5294 592.685 38.464 592.675 38.6932C592.973 38.822 592.64 38.3675 592.834 38.5266C594.259 38.9082 595.632 39.4187 596.211 39.5116C596.236 40.0702 597.685 39.9908 598.132 40.1821C598.532 40.2758 598.671 40.5713 599.118 40.7626C599.986 41.2134 601.004 41.1074 601.561 41.6576C600.595 46.7879 597.588 50.4939 595.34 55.9309L595.352 55.9303Z" fill="white"/>
<path d="M643.601 89.1983C643.221 89.7218 643.168 90.2146 642.807 90.5718C640.903 92.6444 638.923 95.1075 637.21 97.0546C637.143 97.0077 637.103 97.0643 637.078 96.9572C637.003 97.6116 635.889 98.042 635.949 98.7949C635.908 98.8552 635.777 98.7577 635.71 98.7109C634.509 100.232 633.753 101.276 632.541 102.259C631.989 103.989 630.169 104.702 628.917 105.741C628.6 106.043 628.544 106.534 627.982 106.478C627.668 107.049 627.065 107.053 626.943 107.498C626.745 107.354 626.237 107.781 626.093 108.12C625.214 108.365 624.375 108.554 623.606 109.059C622.253 109.406 620.635 109.561 619.036 109.55C618.838 109.406 618.712 109.582 618.448 109.39C615.621 109.553 612.269 108.088 608.982 106.673C607.153 105.876 605.928 105.072 604.203 103.993C603.634 103.668 603.127 103.124 602.602 102.742C601.967 102.37 601.336 101.998 600.719 101.463C599.732 100.746 599.132 99.7759 598.512 98.9719C598.292 98.7215 597.895 98.4366 597.676 98.1862C597.009 97.1689 596.762 95.5715 596.221 94.3781C596.133 94.2252 595.869 94.034 595.756 93.7739C595.878 93.3291 595.739 92.9655 595.472 92.5019C595.51 92.1728 595.331 91.8659 595.409 91.4802C594.713 90.087 595.136 88.5321 594.547 87.1292C594.892 85.96 594.064 84.473 594.493 83.188C594.446 82.9747 594.358 82.8218 594.332 82.7183C594.655 81.443 594.867 80.18 594.929 78.9823C595.997 76.1239 598.517 73.6107 600.045 71.0831C600.13 70.9673 600.149 70.8046 600.274 70.6285C601.451 69.0003 602.888 67.2945 604.042 65.5639C604.798 64.5196 605.73 63.5097 606.14 62.391C608.146 60.0351 610.059 57.2575 612.054 54.363C612.729 53.4354 613.849 52.299 614.285 51.2837C614.473 50.8894 614.24 50.0994 614.755 49.9421C615.728 50.1192 617.64 51.7745 618.561 52.4444C618.969 52.2968 619.711 52.6597 619.978 53.1196C620.045 53.1665 620.104 52.9435 620.236 53.0409C622.606 55.0307 624.137 57.2096 626.592 59.0835C626.574 59.2462 626.554 59.4126 626.753 59.5531C626.657 60.1015 625.884 60.3411 625.353 60.9299C624.656 61.755 624.095 62.9427 623.38 63.9305C623.025 64.5611 622.276 64.8995 621.939 65.3675C621.689 65.716 621.845 66.1883 621.327 66.0768C621.402 66.666 620.572 67.1212 620.232 67.5882C619.365 68.6449 618.934 69.6575 618.045 70.6082C617.81 70.7929 617.597 70.8124 617.361 70.9971C617.235 71.1732 617.431 71.3127 617.39 71.373L616.834 71.5906C616.175 72.0867 615.868 72.9269 615.337 73.5194C614.935 73.9368 613.993 74.4044 614.176 74.9801C613.47 75.263 613.244 75.9863 612.526 76.7054C610.771 78.7128 608.92 81.2685 608.706 83.5063C608.345 83.8634 607.931 84.717 608.154 85.2362C608.051 85.5147 607.849 85.1016 607.745 85.3838C607.642 85.6623 607.714 85.9827 607.762 86.1922C606.768 88.3961 606.327 90.1137 606.41 92.2162C606.449 93.1307 607.705 95.5509 608.547 96.6101C609.144 97.3118 610.011 97.4986 611.105 98.2056C612.198 98.9126 613.32 99.9955 614.434 100.536C614.632 100.68 615.11 100.848 615.436 101.089C615.634 101.233 615.759 101.057 615.909 100.992C616.784 101.449 617.232 101.245 617.938 100.962C619.013 100.588 620.017 100.166 620.871 99.5455C621.022 99.4765 621.166 99.1378 621.357 99.0122C622.186 98.2845 622.864 97.6258 623.924 96.7123C624.904 95.9156 625.575 94.987 626.602 94.3999C627.355 93.0831 628.501 92.0538 629.407 90.9404C630.421 89.8137 631.174 88.5005 631.934 87.4535L632.944 86.0579C633.534 85.2462 633.709 84.3086 634.255 83.5524C635.077 82.5549 636.075 81.5956 636.909 80.1618C637.865 78.287 639.416 76.8413 640.604 74.7806C642.168 74.1422 642.053 72.6423 642.959 71.529C643.062 71.2505 642.733 71.0087 642.836 70.7303C643.245 70.5827 643.248 70.8514 643.568 70.5509C643.656 70.7038 644.989 71.4948 644.426 71.4426C644.624 71.5869 644.838 71.5638 644.778 71.7867C645.043 71.9779 644.816 71.4577 644.97 71.6612C646.277 72.3451 647.502 73.1495 648.046 73.3681C647.949 73.9164 649.378 74.1591 649.771 74.4467C650.141 74.6281 650.211 74.9438 650.607 75.2324C651.351 75.864 652.37 75.9819 652.794 76.6464C650.729 81.4399 646.984 84.3922 643.599 89.2057L643.601 89.1983Z" fill="white"/>
<path d="M649.219 143.045C646.159 140.371 642.542 136.979 639.392 133.924C638.086 132.701 637.137 131.22 635.795 130.154C635.015 129.324 634.132 128.005 633.292 127.119C632.157 125.956 630.961 125.328 630.27 124.284C630.081 124.01 629.99 123.629 629.793 123.245C629.604 122.971 629.202 122.689 629.12 122.418C628.991 122.197 629.048 121.662 628.425 121.372C628.658 121.003 628.243 120.613 628.313 120.185C629.402 119.731 630.459 118.957 631.351 118.119C631.449 118.015 631.477 117.747 631.575 117.639C632.212 116.957 633.074 116.39 633.77 115.765C634.661 114.931 635.415 113.766 636.343 112.771C637.899 110.987 639.877 109.103 641.187 107.581C641.48 107.264 641.845 107.116 642.041 106.904C642.626 106.275 643.291 105.325 644.107 104.81C644.447 103.851 645.861 103.406 646.201 102.447C646.419 102.453 646.564 102.294 646.78 102.304C648.11 100.404 649.753 98.9963 651.544 97.435C652.435 96.6011 653.258 95.5998 654.038 94.7624C655.26 93.451 656.926 91.6702 657.754 90.1869C659.215 89.0994 660.126 86.808 660.961 85.9182C661.257 86.1943 661.807 86.3189 661.753 86.8592C662.53 87.0963 662.986 87.9176 663.498 88.2033C663.728 88.9083 664.123 89.6764 664.963 89.9715C665.032 90.135 664.887 90.2937 665.063 90.4597C665.992 91.1317 666.378 91.7894 667.431 92.093C667.827 92.8574 668.639 93.4203 669.576 94.2026C670.582 95.1484 671.61 96.3086 672.786 97.3149C674.091 98.5379 675.716 99.7719 677.142 101.105C677.438 101.381 677.597 101.926 678.003 102.21C679.248 103.379 681.12 104.348 681.862 105.339C682.345 105.892 683.381 106.566 683.975 107.123C684.211 107.346 684.352 107.675 684.528 107.841C685.889 109.119 687.312 109.86 688.075 111.66C688.053 111.442 688.172 111.556 688.339 111.615C688.31 111.883 689.344 112.561 689.477 113.37C689.221 113.526 688.998 114.002 688.692 114.211C688.339 114.47 687.7 114.56 687.979 115.215C687.882 115.32 687.703 115.152 687.545 115.203C687.35 115.412 687.427 115.686 687.343 115.898C687.028 115.996 686.644 115.931 686.282 116.084C685.529 117.245 684.666 117.815 683.244 118.15C681.901 117.088 680.613 114.894 679.093 113.666C678.688 113.383 678.973 113.556 678.609 113.113C678.116 112.453 677.128 111.724 676.524 111.06C676.289 110.837 676.575 111.007 676.659 110.795C675.505 110.006 674.486 108.953 673.512 108.332C672.049 107.156 670.304 105.812 668.695 104.202C667.154 102.756 665.943 100.837 664.151 100.135C664.1 100.188 664.053 100.239 663.993 100.186C664.064 100.942 663.079 100.805 663.006 101.72C662.644 101.873 661.986 102.337 662.304 102.832C662.068 102.609 661.901 103.141 661.674 103.028C660.14 105.03 658.837 106.067 657.294 107.962C660.628 110.107 663.841 113.811 667.634 115.699C668.376 116.689 669.009 117.085 669.64 118.072C669.7 118.129 669.631 117.966 669.789 117.915C670.206 118.897 671.685 119.694 671.801 120.882C670.073 121.422 669.282 122.748 667.673 123.402C667.683 123.508 667.538 123.667 667.764 123.783C667.667 123.887 667.468 123.507 667.371 123.611C666.952 124.3 666.429 124.499 665.969 124.756C665.264 125.275 665.427 126.409 664.75 126.66C664.2 126.535 663.873 125.934 664.046 125.508C663.141 125.05 663.166 124.19 662.623 123.58C661.821 122.532 660.537 121.527 659.383 120.739C658.802 120.289 658.132 120.055 657.439 119.606C657.083 119.273 656.719 118.829 656.313 118.55C654.744 117.372 652.932 116.456 651.693 114.804C649.933 116.69 646.878 119.727 645.775 121.74C644.844 122.142 644.532 122.833 643.807 123.73C645.454 125.179 647.143 126.467 648.813 128.133C650.533 129.746 652.458 131.257 654.234 132.926C654.897 133.647 655.844 134.536 656.665 135.205C658.077 136.431 659.879 137.239 661.272 138.251C661.605 138.37 661.883 138.429 662.206 138.441C662.911 139.593 664.317 139.634 664.511 141.096C663.789 142.582 662.407 143.352 662.611 144.917C660.703 146.961 660.855 149.659 659.317 151.66C659.003 151.758 658.657 151.532 658.392 151.58C658.105 151.411 658.282 150.985 657.996 150.816C657.073 151.329 656.251 149.472 655.014 148.412C654.017 147.577 653.097 146.415 652.04 145.523C651.565 145.076 650.895 144.841 650.313 144.396C649.957 144.063 649.63 143.462 649.215 143.072L649.219 143.045Z" fill="white"/>
<path d="M685.411 175.538C682.236 173.003 678.474 169.773 675.191 166.86C673.834 165.694 672.82 164.258 671.432 163.256C670.615 162.46 669.676 161.181 668.797 160.335C667.611 159.222 666.392 158.647 665.652 157.637C665.452 157.372 665.345 156.994 665.129 156.621C664.929 156.356 664.51 156.093 664.419 155.823C664.281 155.608 664.315 155.07 663.68 154.809C663.896 154.427 663.466 154.061 663.514 153.627C664.581 153.127 665.604 152.302 666.458 151.43C666.553 151.321 666.566 151.053 666.66 150.944C667.264 150.236 668.102 149.631 668.771 148.974C669.625 148.101 670.324 146.905 671.208 145.869C672.683 144.018 674.574 142.049 675.817 140.468C676.097 140.14 676.452 139.973 676.637 139.754C677.195 139.097 677.819 138.123 678.609 137.573C678.906 136.598 680.3 136.095 680.594 135.119C680.81 135.117 680.948 134.952 681.168 134.951C682.41 132.993 683.993 131.517 685.715 129.876C686.569 129.004 687.347 127.965 688.089 127.093C689.254 125.73 690.837 123.877 691.597 122.354C693.009 121.201 693.818 118.877 694.612 117.947C694.92 118.211 695.477 118.309 695.442 118.851C696.229 119.055 696.723 119.855 697.246 120.116C697.506 120.814 697.939 121.56 698.786 121.817C698.863 121.979 698.722 122.139 698.907 122.3C699.863 122.932 700.279 123.57 701.346 123.825C701.775 124.571 702.609 125.1 703.582 125.837C704.63 126.735 705.711 127.85 706.927 128.8C708.284 129.966 709.966 131.124 711.446 132.393C711.754 132.656 711.94 133.193 712.355 133.455C713.648 134.566 715.564 135.451 716.351 136.411C716.86 136.944 717.925 137.57 718.539 138.101C718.786 138.311 718.937 138.634 719.124 138.791C720.543 140.006 721.994 140.687 722.839 142.451C722.809 142.235 722.934 142.342 723.102 142.394C723.085 142.665 724.15 143.292 724.318 144.099C724.072 144.265 723.87 144.751 723.572 144.97C723.231 145.245 722.597 145.36 722.904 146.004C722.809 146.113 722.628 145.953 722.472 146.009C722.286 146.228 722.378 146.494 722.3 146.711C721.99 146.823 721.604 146.777 721.246 146.943C720.547 148.139 719.71 148.745 718.302 149.14C716.914 148.137 715.529 146.004 713.955 144.844C713.539 144.582 713.834 144.738 713.445 144.311C712.921 143.675 711.905 142.99 711.273 142.354C711.026 142.144 711.32 142.299 711.398 142.082C710.21 141.344 709.145 140.337 708.142 139.76C706.633 138.651 704.825 137.389 703.147 135.852C701.542 134.476 700.252 132.613 698.428 131.994C698.38 132.049 698.333 132.103 698.272 132.05C698.377 132.803 697.387 132.71 697.354 133.624C697 133.791 696.362 134.285 696.703 134.766C696.456 134.555 696.314 135.095 696.085 134.99C694.64 137.057 693.384 138.155 691.926 140.115C695.35 142.109 698.725 145.664 702.603 147.383C703.389 148.342 704.035 148.706 704.714 149.667C704.774 149.72 704.701 149.559 704.852 149.502C705.311 150.464 706.825 151.195 706.99 152.377C705.288 152.996 704.556 154.351 702.979 155.078C702.992 155.186 702.853 155.35 703.087 155.453C702.992 155.562 702.78 155.189 702.685 155.298C702.297 156.003 701.787 156.226 701.338 156.502C700.656 157.052 700.869 158.18 700.204 158.458C699.646 158.359 699.296 157.772 699.45 157.34C698.525 156.925 698.511 156.061 697.94 155.479C697.092 154.47 695.768 153.522 694.58 152.784C693.979 152.361 693.3 152.156 692.59 151.738C692.218 151.42 691.834 150.995 691.418 150.733C689.796 149.628 687.946 148.793 686.635 147.197C684.961 149.159 682.044 152.327 681.031 154.389C680.116 154.833 679.836 155.537 679.154 156.462C680.866 157.837 682.609 159.048 684.353 160.636C686.14 162.168 688.133 163.595 689.98 165.18C690.673 165.869 691.659 166.717 692.51 167.351C693.977 168.512 695.814 169.238 697.249 170.187C697.591 170.288 697.867 170.339 698.191 170.335C698.945 171.453 700.352 171.434 700.61 172.882C699.955 174.399 698.608 175.227 698.882 176.784C697.066 178.91 697.336 181.601 695.891 183.669C695.58 183.78 695.225 183.571 694.962 183.628C694.668 183.473 694.823 183.037 694.533 182.883C693.635 183.435 692.729 181.618 691.449 180.614C690.416 179.82 689.446 178.705 688.352 177.861C687.859 177.437 687.18 177.232 686.578 176.813C686.207 176.495 685.856 175.908 685.424 175.537L685.411 175.538Z" fill="white"/>
<path d="M732.114 204.591C731.783 203.122 731.867 202.434 731.292 201.079C731.216 199.822 731.138 198.568 730.852 197.364C731.341 195.028 731.543 192.539 731.428 190.131L731.662 189.686C731.618 189.422 731.565 188.823 731.769 188.609C731.697 187.517 731.672 186.695 731.737 185.514C731.46 184.64 731.972 184.018 731.735 183.242C731.841 183.217 731.905 183.091 732.012 183.065C732.007 182.9 731.822 182.724 731.818 182.558C732.224 180.907 732.264 179.955 732.289 178.675C729.893 178.876 727.844 179.988 725.375 180.149C722.977 183.509 721.374 187.45 719.23 191.022C718.389 192.282 716.764 193.455 715.933 195.045C715.68 194.829 715.538 194.921 715.328 194.973C714.885 194.415 714.222 194.634 713.617 194.562C713.046 194.424 712.362 193.985 711.647 193.77C710.218 193.343 708.413 193.289 706.827 192.294C705.638 191.588 704.072 191.254 704.005 190.328C704.409 189.731 704.858 189.399 705.157 188.825C705.328 188.673 705.079 188.622 705.007 188.582C705.706 187.246 706.581 185.923 707.347 184.462C707.978 183.254 708.466 181.97 709.17 180.799C709.941 179.503 711.138 178.265 711.94 176.906C712.204 176.397 712.36 175.75 712.697 175.278C713.234 174.428 713.922 173.816 714.182 173.142C714.416 172.697 714.177 172.977 714.486 172.733C714.592 172.707 714.54 172.276 714.54 172.276C715.043 171.488 715.765 170.814 716.152 169.721C716.445 168.985 717.553 167.217 717.857 165.756C719.459 163.921 720.159 161.534 720.95 159.844C721.331 159.641 721.659 158.838 721.747 158.32C722.024 158.143 722.43 157.543 722.728 156.972C722.962 156.527 723.226 156.018 723.11 155.713C723.74 155.557 724.151 154.07 724.272 153.489C724.956 152.712 725.563 150.846 726.33 149.381C726.663 148.744 727.141 148.185 726.907 147.578C727.224 147.501 727.21 147.169 727.633 147.07C728.827 147.941 729.978 148.544 731.485 149.173C732.236 149.487 733.036 150.066 733.929 150.456C734.714 150.708 736.026 150.829 736.552 151.75C737.221 151.697 738.513 152.212 738.786 153.086C737.927 153.849 737.999 154.941 737.711 155.842C737.256 157.064 736.381 158.386 735.717 159.656C735.145 160.573 734.652 161.692 734.153 162.646C734.085 162.774 734.133 163.04 734.064 163.168C733.561 163.956 732.526 164.709 732.564 165.864C731.735 166.399 731.919 167.795 731.191 168.14C731.084 169.216 730.425 169.601 730.244 170.476C731.278 170.775 732.869 169.664 733.864 169.864C737.456 168.427 740.087 167.78 743.469 166.396C744.732 166.088 746.197 165.557 747.056 164.794C749.248 163.755 751.956 163.314 753.85 161.794C754.309 161.793 754.903 161.538 754.997 161.181C755.412 160.911 756.065 161.417 756.597 161.452C757.532 162.998 760.153 163.236 760.688 164.492C762.132 165.41 762.873 166.448 764.033 167.382C763.935 167.574 763.833 167.765 764.189 167.787C764.023 168.103 763.994 168.331 763.934 168.626C763.617 168.703 763.412 168.921 762.982 168.695C763.132 168.937 763.021 168.797 762.855 169.114C762.602 168.898 762.65 169.331 762.357 169.016C761.981 169.385 761.416 169.412 760.922 169.48C758.282 170.847 755.227 171.433 752.625 172.904C751.284 173.01 750.327 173.965 748.912 173.87C746.896 174.919 744.656 175.525 742.519 176.104C743.947 177.582 743.331 179.286 743.114 181.279C742.963 182.092 743.098 182.89 743.053 183.677C742.993 185.023 743.349 186.264 743.255 187.672C743.615 187.862 743.099 188.319 743.602 188.582C743.293 188.826 743.519 189.266 743.64 189.736C743.496 191.767 743.929 194.264 743.723 196.585C743.655 196.713 743.801 196.787 744.016 196.9C743.629 196.942 743.795 197.676 743.909 197.977C743.649 199.702 743.768 201.227 743.646 202.863C743.84 203.37 743.751 203.893 743.903 204.296C745.097 205.167 744.487 205.981 744.666 207.048C744.241 208.038 744.255 209.585 744.137 210.335C743.966 210.487 743.756 210.539 743.576 210.527C743.288 210.378 743.283 210.212 743.138 210.135C740.446 208.801 737.402 207.611 734.964 206.658C734.472 206.721 733.862 206.484 733.222 206.31C732.886 205.726 732.759 205.095 732.106 204.589L732.114 204.591ZM737.672 152.085C737.527 152.008 737.462 152.137 737.317 152.06C737.146 152.211 737.395 152.262 737.537 152.338L737.669 152.084L737.672 152.085Z" fill="white"/>
<path d="M786.048 220.578C785.338 219.249 785.238 218.565 784.327 217.414C783.921 216.223 783.513 215.036 782.918 213.951C782.77 211.57 782.308 209.12 781.558 206.827L781.666 206.338C781.552 206.094 781.341 205.534 781.483 205.271C781.128 204.238 780.881 203.452 780.637 202.295C780.138 201.526 780.468 200.788 780.032 200.108C780.127 200.055 780.158 199.916 780.253 199.863C780.202 199.705 779.982 199.582 779.931 199.428C779.885 197.728 779.67 196.803 779.358 195.559C777.098 196.391 775.418 198.008 773.079 198.821C771.653 202.698 771.149 206.92 770.027 210.934C769.546 212.372 768.292 213.935 767.913 215.69C767.609 215.551 767.499 215.672 767.31 215.778C766.736 215.359 766.151 215.748 765.552 215.837C764.964 215.858 764.189 215.614 763.444 215.601C761.954 215.573 760.199 215.997 758.403 215.462C757.069 215.099 755.469 215.191 755.164 214.317C755.395 213.631 755.742 213.194 755.878 212.561C756.005 212.369 755.749 212.384 755.67 212.37C755.989 210.897 756.486 209.388 756.837 207.777C757.129 206.444 757.259 205.078 757.629 203.764C758.026 202.31 758.855 200.799 759.269 199.273C759.393 198.713 759.371 198.047 759.569 197.504C759.864 196.54 760.363 195.767 760.436 195.048C760.543 194.559 760.389 194.89 760.622 194.573C760.717 194.52 760.557 194.119 760.557 194.119C760.834 193.226 761.35 192.381 761.435 191.226C761.525 190.436 762.125 188.44 762.034 186.951C763.093 184.758 763.135 182.271 763.452 180.43C763.768 180.132 763.869 179.273 763.819 178.748C764.04 178.503 764.271 177.817 764.406 177.188C764.514 176.698 764.634 176.137 764.441 175.874C765.01 175.556 765.011 174.013 764.977 173.42C765.429 172.489 765.524 170.529 765.872 168.913C766.024 168.213 766.337 167.546 765.953 167.021C766.237 166.862 766.14 166.547 766.519 166.335C767.9 166.856 769.173 167.13 770.788 167.334C771.596 167.436 772.521 167.783 773.486 167.921C774.31 167.952 775.606 167.721 776.357 168.471C776.988 168.242 778.367 168.395 778.866 169.161C778.241 170.126 778.596 171.159 778.559 172.104C778.44 173.401 777.948 174.908 777.645 176.309C777.334 177.344 777.157 178.553 776.927 179.603C776.895 179.742 777.009 179.986 776.976 180.129C776.698 181.021 775.899 182.025 776.239 183.125C775.578 183.865 776.131 185.157 775.514 185.686C775.697 186.753 775.163 187.297 775.219 188.192C776.295 188.207 777.537 186.713 778.55 186.638C781.635 184.297 784.003 182.976 786.898 180.741C788.035 180.105 789.31 179.209 789.935 178.243C791.776 176.66 794.269 175.515 795.694 173.546C796.137 173.42 796.642 173.016 796.638 172.651C796.967 172.28 797.73 172.594 798.255 172.487C799.563 173.727 802.158 173.262 803.006 174.327C804.64 174.828 805.631 175.63 806.997 176.222C806.953 176.433 806.905 176.644 807.252 176.571C807.176 176.921 807.211 177.15 807.226 177.447C806.942 177.606 806.803 177.87 806.326 177.766C806.535 177.958 806.389 177.852 806.314 178.203C806.01 178.064 806.175 178.467 805.806 178.238C805.54 178.694 805.003 178.873 804.546 179.067C802.361 181.088 799.567 182.464 797.445 184.574C796.182 185.034 795.509 186.21 794.117 186.494C792.45 188.042 790.448 189.224 788.542 190.348C790.308 191.395 790.166 193.197 790.484 195.175C790.552 195.998 790.894 196.731 791.057 197.501C791.353 198.812 792.027 199.916 792.307 201.299C792.705 201.384 792.329 201.964 792.884 202.086C792.65 202.404 792.984 202.77 793.228 203.188C793.624 205.183 794.705 207.474 795.12 209.767C795.089 209.906 795.249 209.944 795.486 209.995C795.123 210.136 795.476 210.8 795.668 211.062C795.872 212.796 796.392 214.231 796.707 215.84C797.029 216.275 797.079 216.801 797.338 217.151C798.72 217.672 798.347 218.617 798.801 219.598C798.652 220.667 799.077 222.155 799.162 222.907C799.036 223.099 798.846 223.205 798.673 223.24C798.355 223.169 798.308 223.012 798.15 222.979C795.2 222.411 791.949 222.074 789.345 221.801C788.888 221.994 788.237 221.929 787.572 221.928C787.093 221.456 786.802 220.881 786.039 220.568L786.048 220.578ZM777.516 168.501C777.358 168.468 777.327 168.607 777.169 168.574C777.042 168.766 777.298 168.75 777.456 168.783L777.515 168.504L777.516 168.501Z" fill="white"/>
</g>
<defs>
<clipPath id="clip0_1252_133">
<rect width="366" height="131" fill="white" transform="translate(481.854 0.761719) rotate(15.8844)"/>
</clipPath>
</defs>
</svg>
